# MagicaVoxel @ Ephtracy

# group
o 

# material
mtllib Tile_001A.mtl
usemtl palette

# normals
vn -1 0 0
vn 1 0 0
vn 0 0 1
vn 0 0 -1
vn 0 -1 0
vn 0 1 0

# texcoords
vt 0.232422 0.5
vt 0.396484 0.5
vt 0.607422 0.5
vt 0.771484 0.5

# verts
v -0.5 0 0.5
v -0.5 0 -0.5
v -0.5 0.1 0.3
v -0.5 0.1 0.1
v -0.5 0.2 0.4
v -0.5 0.2 0.3
v -0.5 0.2 0.1
v -0.5 0.2 -0.2
v -0.5 0.2 -0.3
v -0.5 0.3 0.4
v -0.5 0.3 0.3
v -0.5 0.3 -0.2
v -0.5 0.3 -0.3
v -0.5 0.4 0.4
v -0.5 0.4 0.3
v -0.5 0.4 0.2
v -0.5 0.4 0.1
v -0.5 0.4 -0.1
v -0.5 0.4 -0.3
v -0.5 0.4 -0.4
v -0.5 0.4 -0.5
v -0.5 0.5 0.5
v -0.5 0.5 0.4
v -0.5 0.5 0.3
v -0.5 0.5 0.2
v -0.5 0.5 0.1
v -0.5 0.5 0
v -0.5 0.5 -0.1
v -0.5 0.5 -0.2
v -0.5 0.5 -0.3
v -0.5 0.5 -0.4
v -0.5 0.6 0.4
v -0.5 0.6 0.3
v -0.5 0.6 0.2
v -0.5 0.6 0
v -0.5 0.6 -0.2
v -0.5 0.6 -0.3
v -0.5 1 0.5
v -0.5 1 -0.5
v 0.5 0 0.5
v 0.5 0 -0.5
v 0.5 0.1 0.1
v 0.5 0.1 -0.1
v 0.5 0.2 0.4
v 0.5 0.2 0.3
v 0.5 0.2 0.1
v 0.5 0.2 -0.1
v 0.5 0.3 0.4
v 0.5 0.3 0.3
v 0.5 0.3 -0.1
v 0.5 0.3 -0.3
v 0.5 0.4 0.5
v 0.5 0.4 0.4
v 0.5 0.4 0.1
v 0.5 0.4 0
v 0.5 0.4 -0.1
v 0.5 0.4 -0.3
v 0.5 0.4 -0.4
v 0.5 0.5 0.4
v 0.5 0.5 0.3
v 0.5 0.5 0.2
v 0.5 0.5 0.1
v 0.5 0.5 0
v 0.5 0.5 -0.1
v 0.5 0.5 -0.2
v 0.5 0.5 -0.3
v 0.5 0.5 -0.4
v 0.5 0.6 0.3
v 0.5 0.6 0.2
v 0.5 0.6 -0.1
v 0.5 0.6 -0.2
v 0.5 0.6 -0.3
v 0.5 0.6 -0.5
v 0.5 1 0.5
v 0.5 1 -0.5
v -0.5 0 0.5
v -0.5 0.5 0.5
v -0.5 1 0.5
v -0.4 0.2 0.5
v -0.4 0.3 0.5
v -0.4 0.4 0.5
v -0.4 0.5 0.5
v -0.4 0.6 0.5
v -0.3 0.2 0.5
v -0.3 0.3 0.5
v -0.3 0.4 0.5
v -0.3 0.5 0.5
v -0.2 0.1 0.5
v -0.2 0.2 0.5
v -0.1 0.4 0.5
v -0.1 0.5 0.5
v 0 0.1 0.5
v 0 0.2 0.5
v 0 0.5 0.5
v 0 0.6 0.5
v 0.1 0.2 0.5
v 0.1 0.3 0.5
v 0.1 0.4 0.5
v 0.1 0.6 0.5
v 0.2 0.4 0.5
v 0.2 0.6 0.5
v 0.3 0.4 0.5
v 0.3 0.5 0.5
v 0.4 0.2 0.5
v 0.4 0.3 0.5
v 0.4 0.4 0.5
v 0.4 0.5 0.5
v 0.5 0 0.5
v 0.5 0.4 0.5
v 0.5 1 0.5
v -0.5 0 -0.5
v -0.5 0.4 -0.5
v -0.5 1 -0.5
v -0.4 0.1 -0.5
v -0.4 0.2 -0.5
v -0.4 0.5 -0.5
v -0.4 0.6 -0.5
v -0.3 0.4 -0.5
v -0.3 0.5 -0.5
v -0.3 0.6 -0.5
v -0.2 0.1 -0.5
v -0.2 0.2 -0.5
v -0.2 0.3 -0.5
v -0.2 0.4 -0.5
v -0.1 0.4 -0.5
v -0.1 0.5 -0.5
v 0 0.3 -0.5
v 0 0.4 -0.5
v 0 0.5 -0.5
v 0.1 0.5 -0.5
v 0.1 0.6 -0.5
v 0.2 0 -0.5
v 0.2 0.2 -0.5
v 0.2 0.4 -0.5
v 0.2 0.6 -0.5
v 0.3 0 -0.5
v 0.3 0.1 -0.5
v 0.3 0.4 -0.5
v 0.3 0.5 -0.5
v 0.4 0.1 -0.5
v 0.4 0.2 -0.5
v 0.4 0.5 -0.5
v 0.4 0.6 -0.5
v 0.5 0 -0.5
v 0.5 0.6 -0.5
v 0.5 1 -0.5
v -0.5 0 0.5
v 0.5 0 0.5
v 0.2 0 -0.4
v 0.3 0 -0.4
v -0.5 0 -0.5
v 0.2 0 -0.5
v 0.3 0 -0.5
v 0.5 0 -0.5
v -0.5 1 0.5
v 0.5 1 0.5
v 0.1 1 0.4
v 0.2 1 0.4
v -0.3 1 0.3
v -0.2 1 0.3
v 0.1 1 0.3
v 0.2 1 0.3
v -0.3 1 0.2
v -0.2 1 0.2
v 0.3 1 0.2
v 0.4 1 0.2
v 0.3 1 0.1
v 0.4 1 0.1
v -0.1 1 0
v 0 1 0
v -0.1 1 -0.1
v 0 1 -0.1
v 0.2 1 -0.1
v 0.3 1 -0.1
v -0.3 1 -0.2
v -0.2 1 -0.2
v 0.2 1 -0.2
v 0.3 1 -0.2
v -0.3 1 -0.3
v -0.2 1 -0.3
v 0.3 1 -0.3
v 0.4 1 -0.3
v 0.3 1 -0.4
v 0.4 1 -0.4
v -0.5 1 -0.5
v 0.5 1 -0.5

# faces
f 3/1/1 2/1/1 1/1/1
f 4/1/1 2/1/1 3/1/1
f 5/1/1 3/1/1 1/1/1
f 6/2/1 4/2/1 3/2/1
f 6/1/1 3/1/1 5/1/1
f 7/1/1 2/1/1 4/1/1
f 7/2/1 4/2/1 6/2/1
f 8/1/1 2/1/1 7/1/1
f 9/1/1 2/1/1 8/1/1
f 10/2/1 6/2/1 5/2/1
f 10/1/1 5/1/1 1/1/1
f 11/1/1 7/1/1 6/1/1
f 11/2/1 6/2/1 10/2/1
f 11/1/1 8/1/1 7/1/1
f 12/2/1 9/2/1 8/2/1
f 12/1/1 8/1/1 11/1/1
f 13/1/1 2/1/1 9/1/1
f 13/2/1 9/2/1 12/2/1
f 14/1/1 12/1/1 11/1/1
f 14/1/1 11/1/1 10/1/1
f 14/1/1 13/1/1 12/1/1
f 14/1/1 10/1/1 1/1/1
f 15/1/1 13/1/1 14/1/1
f 16/1/1 13/1/1 15/1/1
f 17/1/1 13/1/1 16/1/1
f 18/1/1 13/1/1 17/1/1
f 19/1/1 2/1/1 13/1/1
f 19/1/1 13/1/1 18/1/1
f 20/1/1 2/1/1 19/1/1
f 21/1/1 2/1/1 20/1/1
f 22/1/1 14/1/1 1/1/1
f 23/3/1 15/3/1 14/3/1
f 23/1/1 14/1/1 22/1/1
f 24/1/1 16/1/1 15/1/1
f 24/3/1 15/3/1 23/3/1
f 25/3/1 17/3/1 16/3/1
f 25/1/1 16/1/1 24/1/1
f 26/1/1 18/1/1 17/1/1
f 26/3/1 17/3/1 25/3/1
f 27/1/1 18/1/1 26/1/1
f 28/3/1 19/3/1 18/3/1
f 28/1/1 18/1/1 27/1/1
f 29/3/1 19/3/1 28/3/1
f 30/1/1 20/1/1 19/1/1
f 30/3/1 19/3/1 29/3/1
f 31/3/1 21/3/1 20/3/1
f 31/1/1 20/1/1 30/1/1
f 32/3/1 23/3/1 22/3/1
f 32/1/1 24/1/1 23/1/1
f 33/3/1 25/3/1 24/3/1
f 33/1/1 24/1/1 32/1/1
f 34/1/1 27/1/1 26/1/1
f 34/3/1 25/3/1 33/3/1
f 34/1/1 26/1/1 25/1/1
f 35/3/1 29/3/1 28/3/1
f 35/1/1 27/1/1 34/1/1
f 35/3/1 28/3/1 27/3/1
f 36/1/1 30/1/1 29/1/1
f 36/3/1 29/3/1 35/3/1
f 37/3/1 31/3/1 30/3/1
f 37/1/1 30/1/1 36/1/1
f 38/3/1 32/3/1 22/3/1
f 38/3/1 36/3/1 35/3/1
f 38/3/1 37/3/1 36/3/1
f 38/3/1 35/3/1 34/3/1
f 38/3/1 34/3/1 33/3/1
f 38/3/1 33/3/1 32/3/1
f 39/3/1 31/3/1 37/3/1
f 39/3/1 37/3/1 38/3/1
f 39/3/1 21/3/1 31/3/1
f 40/1/2 41/1/2 42/1/2
f 42/1/2 41/1/2 43/1/2
f 40/1/2 42/1/2 44/1/2
f 44/1/2 42/1/2 45/1/2
f 42/2/2 43/2/2 46/2/2
f 45/1/2 42/1/2 46/1/2
f 43/1/2 41/1/2 47/1/2
f 46/2/2 43/2/2 47/2/2
f 44/2/2 45/2/2 48/2/2
f 40/1/2 44/1/2 48/1/2
f 45/1/2 46/1/2 49/1/2
f 48/2/2 45/2/2 49/2/2
f 46/1/2 47/1/2 49/1/2
f 47/1/2 41/1/2 50/1/2
f 49/1/2 47/1/2 50/1/2
f 50/1/2 41/1/2 51/1/2
f 40/1/2 48/1/2 52/1/2
f 48/1/2 49/1/2 52/1/2
f 49/1/2 50/1/2 52/1/2
f 52/1/2 50/1/2 53/1/2
f 53/1/2 50/1/2 54/1/2
f 54/1/2 50/1/2 55/1/2
f 50/2/2 51/2/2 56/2/2
f 55/1/2 50/1/2 56/1/2
f 51/1/2 41/1/2 57/1/2
f 56/2/2 51/2/2 57/2/2
f 57/1/2 41/1/2 58/1/2
f 52/3/2 53/3/2 59/3/2
f 53/1/2 54/1/2 59/1/2
f 59/1/2 54/1/2 60/1/2
f 60/1/2 54/1/2 61/1/2
f 54/3/2 55/3/2 62/3/2
f 61/1/2 54/1/2 62/1/2
f 55/1/2 56/1/2 63/1/2
f 62/3/2 55/3/2 63/3/2
f 56/1/2 57/1/2 63/1/2
f 63/1/2 57/1/2 64/1/2
f 64/1/2 57/1/2 65/1/2
f 57/3/2 58/3/2 66/3/2
f 65/1/2 57/1/2 66/1/2
f 58/1/2 41/1/2 67/1/2
f 66/3/2 58/3/2 67/3/2
f 60/1/2 61/1/2 68/1/2
f 59/3/2 60/3/2 68/3/2
f 61/3/2 62/3/2 69/3/2
f 68/1/2 61/1/2 69/1/2
f 62/3/2 63/3/2 69/3/2
f 63/3/2 64/3/2 69/3/2
f 64/1/2 65/1/2 70/1/2
f 69/3/2 64/3/2 70/3/2
f 65/3/2 66/3/2 71/3/2
f 70/1/2 65/1/2 71/1/2
f 66/1/2 67/1/2 72/1/2
f 71/3/2 66/3/2 72/3/2
f 67/1/2 41/1/2 73/1/2
f 72/1/2 67/1/2 73/1/2
f 59/3/2 68/3/2 74/3/2
f 71/3/2 72/3/2 74/3/2
f 72/3/2 73/3/2 74/3/2
f 52/3/2 59/3/2 74/3/2
f 70/3/2 71/3/2 74/3/2
f 68/3/2 69/3/2 74/3/2
f 69/3/2 70/3/2 74/3/2
f 74/3/2 73/3/2 75/3/2
f 79/1/3 77/1/3 76/1/3
f 80/1/3 77/1/3 79/1/3
f 81/1/3 77/1/3 80/1/3
f 82/3/3 78/3/3 77/3/3
f 82/1/3 77/1/3 81/1/3
f 83/3/3 78/3/3 82/3/3
f 84/1/3 79/1/3 76/1/3
f 84/2/3 80/2/3 79/2/3
f 85/1/3 81/1/3 80/1/3
f 85/2/3 80/2/3 84/2/3
f 86/3/3 82/3/3 81/3/3
f 86/1/3 81/1/3 85/1/3
f 87/1/3 83/1/3 82/1/3
f 87/3/3 82/3/3 86/3/3
f 88/1/3 84/1/3 76/1/3
f 88/1/3 86/1/3 85/1/3
f 88/1/3 87/1/3 86/1/3
f 88/1/3 85/1/3 84/1/3
f 89/1/3 87/1/3 88/1/3
f 90/1/3 87/1/3 89/1/3
f 91/1/3 83/1/3 87/1/3
f 91/1/3 87/1/3 90/1/3
f 92/1/3 88/1/3 76/1/3
f 92/2/3 89/2/3 88/2/3
f 93/1/3 90/1/3 89/1/3
f 93/2/3 89/2/3 92/2/3
f 94/1/3 83/1/3 91/1/3
f 94/3/3 91/3/3 90/3/3
f 95/3/3 78/3/3 83/3/3
f 95/1/3 83/1/3 94/1/3
f 96/1/3 90/1/3 93/1/3
f 96/1/3 93/1/3 92/1/3
f 97/1/3 90/1/3 96/1/3
f 98/3/3 94/3/3 90/3/3
f 98/1/3 90/1/3 97/1/3
f 98/3/3 95/3/3 94/3/3
f 99/3/3 78/3/3 95/3/3
f 99/3/3 95/3/3 98/3/3
f 100/1/3 98/1/3 97/1/3
f 100/1/3 99/1/3 98/1/3
f 101/3/3 78/3/3 99/3/3
f 101/1/3 99/1/3 100/1/3
f 102/1/3 100/1/3 97/1/3
f 102/3/3 101/3/3 100/3/3
f 103/3/3 101/3/3 102/3/3
f 104/2/3 97/2/3 96/2/3
f 104/1/3 96/1/3 92/1/3
f 105/1/3 103/1/3 102/1/3
f 105/2/3 97/2/3 104/2/3
f 105/1/3 102/1/3 97/1/3
f 106/1/3 103/1/3 105/1/3
f 107/3/3 101/3/3 103/3/3
f 107/1/3 103/1/3 106/1/3
f 108/1/3 92/1/3 76/1/3
f 108/1/3 106/1/3 105/1/3
f 108/1/3 104/1/3 92/1/3
f 108/1/3 105/1/3 104/1/3
f 109/3/3 107/3/3 106/3/3
f 109/1/3 106/1/3 108/1/3
f 110/3/3 101/3/3 107/3/3
f 110/3/3 107/3/3 109/3/3
f 110/3/3 78/3/3 101/3/3
f 111/1/4 112/1/4 114/1/4
f 114/1/4 112/1/4 115/1/4
f 112/3/4 113/3/4 116/3/4
f 116/3/4 113/3/4 117/3/4
f 115/1/4 112/1/4 118/1/4
f 112/3/4 116/3/4 118/3/4
f 116/1/4 117/1/4 119/1/4
f 118/3/4 116/3/4 119/3/4
f 117/3/4 113/3/4 120/3/4
f 119/1/4 117/1/4 120/1/4
f 111/1/4 114/1/4 121/1/4
f 114/2/4 115/2/4 121/2/4
f 118/1/4 119/1/4 122/1/4
f 121/2/4 115/2/4 122/2/4
f 115/1/4 118/1/4 122/1/4
f 122/1/4 119/1/4 123/1/4
f 123/1/4 119/1/4 124/1/4
f 123/2/4 124/2/4 125/2/4
f 124/1/4 119/1/4 125/1/4
f 119/3/4 120/3/4 126/3/4
f 125/1/4 119/1/4 126/1/4
f 123/2/4 125/2/4 127/2/4
f 121/1/4 122/1/4 127/1/4
f 122/1/4 123/1/4 127/1/4
f 125/3/4 126/3/4 128/3/4
f 127/2/4 125/2/4 128/2/4
f 126/3/4 120/3/4 129/3/4
f 128/3/4 126/3/4 129/3/4
f 127/1/4 128/1/4 130/1/4
f 129/3/4 120/3/4 130/3/4
f 128/1/4 129/1/4 130/1/4
f 120/3/4 113/3/4 131/3/4
f 130/3/4 120/3/4 131/3/4
f 111/1/4 121/1/4 132/1/4
f 127/1/4 130/1/4 132/1/4
f 130/1/4 131/1/4 132/1/4
f 121/1/4 127/1/4 132/1/4
f 132/1/4 131/1/4 133/1/4
f 133/1/4 131/1/4 134/1/4
f 131/3/4 113/3/4 135/3/4
f 134/1/4 131/1/4 135/1/4
f 132/2/4 133/2/4 136/2/4
f 136/2/4 133/2/4 137/2/4
f 133/1/4 134/1/4 138/1/4
f 134/3/4 135/3/4 138/3/4
f 138/3/4 135/3/4 139/3/4
f 137/2/4 133/2/4 140/2/4
f 136/1/4 137/1/4 140/1/4
f 138/1/4 139/1/4 141/1/4
f 140/2/4 133/2/4 141/2/4
f 133/1/4 138/1/4 141/1/4
f 139/3/4 135/3/4 142/3/4
f 141/1/4 139/1/4 142/1/4
f 135/3/4 113/3/4 143/3/4
f 142/3/4 135/3/4 143/3/4
f 140/1/4 141/1/4 144/1/4
f 141/1/4 142/1/4 144/1/4
f 142/1/4 143/1/4 144/1/4
f 136/1/4 140/1/4 144/1/4
f 143/3/4 113/3/4 145/3/4
f 144/1/4 143/1/4 145/1/4
f 145/3/4 113/3/4 146/3/4
f 149/1/5 148/1/5 147/1/5
f 150/1/5 148/1/5 149/1/5
f 151/1/5 149/1/5 147/1/5
f 152/2/5 150/2/5 149/2/5
f 152/1/5 149/1/5 151/1/5
f 153/1/5 148/1/5 150/1/5
f 153/2/5 150/2/5 152/2/5
f 154/1/5 148/1/5 153/1/5
f 155/3/6 156/3/6 157/3/6
f 157/3/6 156/3/6 158/3/6
f 155/3/6 157/3/6 159/3/6
f 159/3/6 157/3/6 160/3/6
f 157/4/6 158/4/6 161/4/6
f 160/3/6 157/3/6 161/3/6
f 158/3/6 156/3/6 162/3/6
f 161/4/6 158/4/6 162/4/6
f 159/4/6 160/4/6 163/4/6
f 155/3/6 159/3/6 163/3/6
f 160/3/6 161/3/6 164/3/6
f 163/4/6 160/4/6 164/4/6
f 161/3/6 162/3/6 164/3/6
f 162/3/6 156/3/6 165/3/6
f 164/3/6 162/3/6 165/3/6
f 165/3/6 156/3/6 166/3/6
f 163/3/6 164/3/6 167/3/6
f 164/3/6 165/3/6 167/3/6
f 165/4/6 166/4/6 167/4/6
f 166/3/6 156/3/6 168/3/6
f 167/4/6 166/4/6 168/4/6
f 163/3/6 167/3/6 169/3/6
f 167/3/6 168/3/6 169/3/6
f 169/3/6 168/3/6 170/3/6
f 163/3/6 169/3/6 171/3/6
f 169/4/6 170/4/6 171/4/6
f 170/3/6 168/3/6 172/3/6
f 171/4/6 170/4/6 172/4/6
f 172/3/6 168/3/6 173/3/6
f 173/3/6 168/3/6 174/3/6
f 155/3/6 163/3/6 175/3/6
f 163/3/6 171/3/6 175/3/6
f 171/3/6 172/3/6 175/3/6
f 172/3/6 173/3/6 175/3/6
f 175/3/6 173/3/6 176/3/6
f 173/4/6 174/4/6 177/4/6
f 176/3/6 173/3/6 177/3/6
f 174/3/6 168/3/6 178/3/6
f 177/4/6 174/4/6 178/4/6
f 175/4/6 176/4/6 179/4/6
f 155/3/6 175/3/6 179/3/6
f 176/3/6 177/3/6 180/3/6
f 179/4/6 176/4/6 180/4/6
f 177/3/6 178/3/6 180/3/6
f 178/3/6 168/3/6 181/3/6
f 180/3/6 178/3/6 181/3/6
f 168/3/6 156/3/6 182/3/6
f 181/3/6 168/3/6 182/3/6
f 180/3/6 181/3/6 183/3/6
f 179/3/6 180/3/6 183/3/6
f 181/4/6 182/4/6 183/4/6
f 182/3/6 156/3/6 184/3/6
f 183/4/6 182/4/6 184/4/6
f 155/3/6 179/3/6 185/3/6
f 179/3/6 183/3/6 185/3/6
f 183/3/6 184/3/6 185/3/6
f 184/3/6 156/3/6 186/3/6
f 185/3/6 184/3/6 186/3/6
